<svg id="图层_1" data-name="图层 1" xmlns="http://www.w3.org/2000/svg" viewBox="0 0 34.59 40.27"><defs><style>.cls-1{fill:#38ba57;}.cls-1,.cls-2,.cls-3{stroke:#7d7d7d;stroke-linecap:round;stroke-linejoin:round;stroke-width:2px;}.cls-2{fill:#fff;}.cls-3{fill:none;}</style></defs><title>LUOBO</title><path class="cls-1" d="M102.92,117.29l-5.2,5.6c-13.2,7-16-12.2-4.9-9-8.5-5,3.2-15.3,7.5-6.3-.7-10.1,15.1-5.6,5.2,6.5Z" transform="translate(-84.93 -101.02)"/><path class="cls-2" d="M118.52,140.29c-22.5-6.6-28.2-19.1-20.3-25.8C107.72,107.59,117.12,114.39,118.52,140.29Z" transform="translate(-84.93 -101.02)"/><path class="cls-3" d="M113.22,117.59c-1.7-.1-5.5,1-8.6,5.5" transform="translate(-84.93 -101.02)"/><path class="cls-3" d="M108.92,126.09c3.5-3.9,6.2-4.3,6.3-4.4" transform="translate(-84.93 -101.02)"/></svg>